<svg width="149" height="30" viewBox="0 0 149 30" fill="none" xmlns="http://www.w3.org/2000/svg">
<rect x="44" width="30" height="30" rx="7" fill="#0062FF"/>
<path d="M65.9037 17.5329C66.7684 17.2129 67.3855 16.3811 67.3855 15.4052C67.3855 14.1524 66.3701 13.137 65.1173 13.137C63.8653 13.137 62.849 14.1524 62.849 15.4052C62.849 16.3811 63.4653 17.2129 64.3309 17.5329C63.6699 18.2587 62.9905 19.6993 62.4651 20.9917C61.773 19.3238 60.9074 17.5346 60.0621 16.6084C61.2316 16.1765 62.0651 15.0516 62.0651 13.7323C62.0651 12.0391 60.6927 10.6658 58.9995 10.6658C57.3063 10.6658 55.9339 12.0391 55.9339 13.7323C55.9339 15.0516 56.7675 16.1756 57.937 16.6084C57.0925 17.5346 56.2261 19.3238 55.5348 20.9917C55.0103 19.6993 54.33 18.2587 53.669 17.5337C54.5346 17.2138 55.1509 16.3819 55.1509 15.4061C55.1509 14.1532 54.1355 13.1378 52.8826 13.1378C51.6298 13.1378 50.6152 14.1532 50.6152 15.4061C50.6152 16.3819 51.2315 17.2138 52.0962 17.5337C51.4125 18.2831 50.7095 19.7978 50.1782 21.1222C53.733 24.6416 59.0004 27 59.0004 27C59.0004 27 64.2677 24.6408 67.8225 21.1214C67.2904 19.7969 66.5873 18.2822 65.9037 17.5329Z" fill="white"/>
<path d="M58.9994 3.00049C52.3731 3.00049 47.0005 8.37309 47.0005 15.0002C47.0005 16.7692 47.8568 18.4481 49.1105 19.9594C49.3664 19.4096 49.6358 18.8775 49.9129 18.4085C49.0347 17.2095 48.5893 16.0662 48.5893 15.0002C48.5893 9.25968 53.2597 4.58844 59.0002 4.58844C64.7408 4.58844 69.412 9.25884 69.412 15.0002C69.412 16.0662 68.9658 17.2095 68.0876 18.4085C68.3638 18.8775 68.634 19.4096 68.89 19.9594C70.1428 18.4472 71 16.7692 71 15.0002C70.9991 8.37309 65.6274 3.00049 58.9994 3.00049Z" fill="white"/>
<path d="M10.04 7.96V17.52C10.04 19 9.62 20.14 8.78 20.94C7.95333 21.74 6.83333 22.14 5.42 22.14C3.94 22.14 2.75333 21.72 1.86 20.88C0.966667 20.04 0.52 18.8467 0.52 17.3H3.92C3.92 17.8867 4.04 18.3333 4.28 18.64C4.52 18.9333 4.86667 19.08 5.32 19.08C5.73333 19.08 6.05333 18.9467 6.28 18.68C6.50667 18.4133 6.62 18.0267 6.62 17.52V7.96H10.04ZM19.4425 22.14C18.1225 22.14 16.9092 21.8333 15.8025 21.22C14.7092 20.6067 13.8358 19.7533 13.1825 18.66C12.5425 17.5533 12.2225 16.3133 12.2225 14.94C12.2225 13.5667 12.5425 12.3333 13.1825 11.24C13.8358 10.1467 14.7092 9.29333 15.8025 8.68C16.9092 8.06667 18.1225 7.76 19.4425 7.76C20.7625 7.76 21.9692 8.06667 23.0625 8.68C24.1692 9.29333 25.0358 10.1467 25.6625 11.24C26.3025 12.3333 26.6225 13.5667 26.6225 14.94C26.6225 16.3133 26.3025 17.5533 25.6625 18.66C25.0225 19.7533 24.1558 20.6067 23.0625 21.22C21.9692 21.8333 20.7625 22.14 19.4425 22.14ZM19.4425 19.02C20.5625 19.02 21.4558 18.6467 22.1225 17.9C22.8025 17.1533 23.1425 16.1667 23.1425 14.94C23.1425 13.7 22.8025 12.7133 22.1225 11.98C21.4558 11.2333 20.5625 10.86 19.4425 10.86C18.3092 10.86 17.4025 11.2267 16.7225 11.96C16.0558 12.6933 15.7225 13.6867 15.7225 14.94C15.7225 16.18 16.0558 17.1733 16.7225 17.92C17.4025 18.6533 18.3092 19.02 19.4425 19.02ZM37.0252 14.8C37.8385 14.9733 38.4918 15.38 38.9852 16.02C39.4785 16.6467 39.7252 17.3667 39.7252 18.18C39.7252 19.3533 39.3118 20.2867 38.4852 20.98C37.6718 21.66 36.5318 22 35.0652 22H28.5252V7.96H34.8452C36.2718 7.96 37.3852 8.28667 38.1852 8.94C38.9985 9.59333 39.4052 10.48 39.4052 11.6C39.4052 12.4267 39.1852 13.1133 38.7452 13.66C38.3185 14.2067 37.7452 14.5867 37.0252 14.8ZM31.9452 13.64H34.1852C34.7452 13.64 35.1718 13.52 35.4652 13.28C35.7718 13.0267 35.9252 12.66 35.9252 12.18C35.9252 11.7 35.7718 11.3333 35.4652 11.08C35.1718 10.8267 34.7452 10.7 34.1852 10.7H31.9452V13.64ZM34.4652 19.24C35.0385 19.24 35.4785 19.1133 35.7852 18.86C36.1052 18.5933 36.2652 18.2133 36.2652 17.72C36.2652 17.2267 36.0985 16.84 35.7652 16.56C35.4452 16.28 34.9985 16.14 34.4252 16.14H31.9452V19.24H34.4652ZM88.9933 7.96V10.7H83.2733V13.66H87.5533V16.32H83.2733V22H79.8533V7.96H88.9933ZM94.2108 7.96V22H90.7908V7.96H94.2108ZM109.249 22H105.829L100.109 13.34V22H96.6892V7.96H100.109L105.829 16.66V7.96H109.249V22ZM116.988 7.96C118.468 7.96 119.762 8.25333 120.868 8.84C121.975 9.42667 122.828 10.2533 123.428 11.32C124.042 12.3733 124.348 13.5933 124.348 14.98C124.348 16.3533 124.042 17.5733 123.428 18.64C122.828 19.7067 121.968 20.5333 120.848 21.12C119.742 21.7067 118.455 22 116.988 22H111.728V7.96H116.988ZM116.768 19.04C118.062 19.04 119.068 18.6867 119.788 17.98C120.508 17.2733 120.868 16.2733 120.868 14.98C120.868 13.6867 120.508 12.68 119.788 11.96C119.068 11.24 118.062 10.88 116.768 10.88H115.148V19.04H116.768ZM129.68 10.7V13.54H134.26V16.18H129.68V19.26H134.86V22H126.26V7.96H134.86V10.7H129.68ZM144.24 22L141.32 16.7H140.5V22H137.08V7.96H142.82C143.927 7.96 144.867 8.15333 145.64 8.54C146.427 8.92667 147.013 9.46 147.4 10.14C147.787 10.8067 147.98 11.5533 147.98 12.38C147.98 13.3133 147.713 14.1467 147.18 14.88C146.66 15.6133 145.887 16.1333 144.86 16.44L148.1 22H144.24ZM140.5 14.28H142.62C143.247 14.28 143.713 14.1267 144.02 13.82C144.34 13.5133 144.5 13.08 144.5 12.52C144.5 11.9867 144.34 11.5667 144.02 11.26C143.713 10.9533 143.247 10.8 142.62 10.8H140.5V14.28Z" fill="#4A4A54"/>
</svg>
